<svg xmlns="http://www.w3.org/2000/svg" viewBox="0 0 1600 900" role="img" aria-labelledby="title desc"><title id="title">The Wall</title><desc id="desc">Abstract editorial preview for The Wall, Great Wall Molepolole.</desc><rect width="1600" height="900" fill="#e9e6dc"/><g fill="#111318"><rect x="830" y="155" width="92" height="92"/><rect x="930" y="155" width="92" height="92"/><rect x="1030" y="155" width="92" height="92"/><rect x="1130" y="155" width="92" height="92"/><rect x="880" y="255" width="92" height="92"/><rect x="980" y="255" width="92" height="92"/><rect x="1080" y="255" width="92" height="92"/><rect x="1180" y="255" width="92" height="92"/><rect x="830" y="355" width="92" height="92"/><rect x="930" y="355" width="92" height="92"/><rect x="1030" y="355" width="92" height="92"/><rect x="1130" y="355" width="92" height="92"/><rect x="880" y="455" width="92" height="92"/><rect x="980" y="455" width="92" height="92"/><rect x="1080" y="455" width="92" height="92"/><rect x="1180" y="455" width="92" height="92"/><rect x="830" y="555" width="92" height="92"/><rect x="930" y="555" width="92" height="92"/><rect x="1030" y="555" width="92" height="92"/><rect x="1130" y="555" width="92" height="92"/></g><text x="92" y="128" fill="#111318" font-family="Arial, Helvetica, sans-serif" font-size="30" font-weight="700" letter-spacing="8">THE WALL</text><text x="92" y="177" fill="#55534e" font-family="Arial, Helvetica, sans-serif" font-size="20" letter-spacing="4">GREAT WALL · MOLEPOLOLE</text><text x="92" y="710" fill="#111318" font-family="Arial, Helvetica, sans-serif" font-size="68" font-weight="700">More than a venue.</text><text x="92" y="776" fill="#55534e" font-family="Arial, Helvetica, sans-serif" font-size="28">Events · discovery · market · opportunity</text></svg>